# xmcd
#
# Track frame offsets:
# 150
# 19611
# 29990
# 47515
# 65333
# 81014
# 95068
# 99881
# 112816
# 133640
# 151230
#
# Disc length: 2555 seconds
#
#
# Revision: 0
# Processed by: cddbd v1.5.1PL2 Copyright (c) Steve Scherf et al.
# Submitted via: FreeRIP 2.943 
#
DISCID=8109f90b
DTITLE=Tall Poppies - Thursday
DYEAR=2005
DGENRE=Cabaret
TTITLE0=Butterfingers
TTITLE1=Drinking Life
TTITLE2=Time Machine
TTITLE3=St Ives
TTITLE4=Funky
TTITLE5=Chameleon
TTITLE6=Chocolatier
TTITLE7=Better off Dead
TTITLE8=Don't Leave
TTITLE9=Cocoon
TTITLE10=Only a Nomad (can carry on)
EXTD=Recorded at Blackbird Sound Studios\nFremantle, Australia\nwww.thetallpoppies.com
EXTT0=
EXTT1=
EXTT2=
EXTT3=
EXTT4=
EXTT5=
EXTT6=
EXTT7=
EXTT8=
EXTT9=
EXTT10=
PLAYORDER=
